# Blender v2.75 (sub 0) OBJ File: ''
# www.blender.org
mtllib PlanetModel.mtl
o Sphere
v -0.195090 0.980785 0.000000
v -0.382683 0.923880 0.000000
v -0.555570 0.831470 0.000000
v -0.707107 0.707107 0.000000
v -0.831470 0.555570 0.000000
v -0.923880 0.382683 0.000000
v -0.980785 0.195090 0.000000
v -1.000000 0.000000 0.000000
v -0.980785 -0.195090 0.000000
v -0.923880 -0.382683 0.000000
v -0.831470 -0.555570 0.000000
v -0.707107 -0.707107 0.000000
v -0.555570 -0.831470 0.000000
v -0.382683 -0.923880 0.000000
v -0.195090 -0.980785 0.000000
v -0.180240 0.980785 -0.074658
v -0.353553 0.923880 -0.146447
v -0.513280 0.831470 -0.212608
v -0.653281 0.707107 -0.270598
v -0.768178 0.555570 -0.318190
v -0.853553 0.382683 -0.353554
v -0.906127 0.195090 -0.375330
v -0.923880 0.000000 -0.382684
v -0.906127 -0.195090 -0.375330
v -0.853553 -0.382683 -0.353554
v -0.768178 -0.555570 -0.318190
v -0.653281 -0.707107 -0.270598
v -0.513280 -0.831470 -0.212608
v -0.353553 -0.923880 -0.146447
v -0.180240 -0.980785 -0.074658
v -0.137950 0.980785 -0.137950
v -0.270598 0.923880 -0.270598
v -0.392847 0.831470 -0.392848
v -0.500000 0.707107 -0.500000
v -0.587938 0.555570 -0.587938
v -0.653281 0.382683 -0.653282
v -0.693520 0.195090 -0.693520
v -0.707107 0.000000 -0.707107
v -0.693520 -0.195090 -0.693520
v -0.653281 -0.382683 -0.653282
v -0.587938 -0.555570 -0.587938
v -0.500000 -0.707107 -0.500000
v -0.392847 -0.831470 -0.392848
v -0.270598 -0.923880 -0.270598
v -0.137949 -0.980785 -0.137950
v -0.074658 0.980785 -0.180240
v -0.146446 0.923880 -0.353554
v -0.212607 0.831470 -0.513280
v -0.270598 0.707107 -0.653282
v -0.318189 0.555570 -0.768178
v -0.353553 0.382683 -0.853554
v -0.375330 0.195090 -0.906128
v -0.382683 0.000000 -0.923880
v -0.375330 -0.195090 -0.906128
v -0.353553 -0.382683 -0.853554
v -0.318189 -0.555570 -0.768178
v -0.270598 -0.707107 -0.653282
v -0.212607 -0.831470 -0.513280
v -0.146446 -0.923880 -0.353554
v -0.074658 -0.980785 -0.180240
v 0.000000 0.980785 -0.195091
v 0.000000 0.923880 -0.382684
v 0.000000 0.831470 -0.555571
v 0.000000 0.707107 -0.707107
v 0.000000 0.555570 -0.831470
v 0.000000 0.382683 -0.923880
v 0.000000 0.195090 -0.980786
v 0.000000 0.000000 -1.000000
v 0.000000 -0.195090 -0.980786
v 0.000000 -0.382683 -0.923880
v 0.000000 -0.555570 -0.831470
v 0.000000 -0.707107 -0.707107
v 0.000000 -0.831470 -0.555570
v 0.000000 -0.923880 -0.382684
v 0.000000 -0.980785 -0.195090
v 0.074658 0.980785 -0.180240
v 0.146447 0.923880 -0.353554
v 0.212608 0.831470 -0.513280
v 0.270599 0.707107 -0.653282
v 0.318190 0.555570 -0.768178
v 0.353554 0.382683 -0.853554
v 0.375331 0.195090 -0.906128
v 0.382684 0.000000 -0.923880
v 0.375331 -0.195090 -0.906128
v 0.353554 -0.382683 -0.853554
v 0.318190 -0.555570 -0.768178
v 0.270599 -0.707107 -0.653282
v 0.212608 -0.831470 -0.513280
v 0.146447 -0.923880 -0.353553
v 0.074658 -0.980785 -0.180240
v 0.137950 0.980785 -0.137950
v 0.270599 0.923880 -0.270598
v 0.392848 0.831470 -0.392848
v 0.500000 0.707107 -0.500000
v 0.587938 0.555570 -0.587938
v 0.653282 0.382683 -0.653282
v 0.693520 0.195090 -0.693520
v 0.707107 0.000000 -0.707107
v 0.693520 -0.195090 -0.693520
v 0.653282 -0.382683 -0.653282
v 0.587938 -0.555570 -0.587938
v 0.500000 -0.707107 -0.500000
v 0.392848 -0.831470 -0.392848
v 0.270599 -0.923880 -0.270598
v 0.137950 -0.980785 -0.137950
v 0.180241 0.980785 -0.074658
v 0.353554 0.923880 -0.146447
v 0.513281 0.831470 -0.212608
v 0.653282 0.707107 -0.270598
v 0.768178 0.555570 -0.318190
v 0.853554 0.382683 -0.353553
v 0.906128 0.195090 -0.375330
v 0.923880 0.000000 -0.382683
v 0.906128 -0.195090 -0.375330
v 0.853554 -0.382683 -0.353553
v 0.768178 -0.555570 -0.318190
v 0.653282 -0.707107 -0.270598
v 0.513281 -0.831470 -0.212607
v 0.353554 -0.923880 -0.146447
v 0.180240 -0.980785 -0.074658
v 0.195091 0.980785 0.000000
v 0.382684 0.923880 0.000000
v 0.555571 0.831470 0.000000
v 0.707107 0.707107 0.000000
v 0.831470 0.555570 0.000000
v 0.923880 0.382683 0.000000
v 0.980786 0.195090 0.000000
v 1.000000 0.000000 0.000000
v 0.980786 -0.195090 0.000000
v 0.923880 -0.382683 0.000000
v 0.831470 -0.555570 0.000000
v 0.707107 -0.707107 0.000000
v 0.555571 -0.831470 0.000000
v 0.382684 -0.923880 0.000000
v 0.195091 -0.980785 0.000000
v 0.180241 0.980785 0.074658
v 0.353554 0.923880 0.146447
v 0.513280 0.831470 0.212608
v 0.653282 0.707107 0.270598
v 0.768178 0.555570 0.318190
v 0.853554 0.382683 0.353554
v 0.906128 0.195090 0.375330
v 0.923880 0.000000 0.382684
v 0.906128 -0.195090 0.375330
v 0.853554 -0.382683 0.353554
v 0.768178 -0.555570 0.318190
v 0.653282 -0.707107 0.270598
v 0.513280 -0.831470 0.212608
v 0.353554 -0.923880 0.146447
v 0.180240 -0.980785 0.074658
v 0.137950 0.980785 0.137950
v 0.270598 0.923880 0.270598
v 0.392848 0.831470 0.392848
v 0.500000 0.707107 0.500000
v 0.587938 0.555570 0.587938
v 0.653282 0.382683 0.653282
v 0.693520 0.195090 0.693520
v 0.707107 0.000000 0.707107
v 0.693520 -0.195090 0.693520
v 0.653282 -0.382683 0.653282
v 0.587938 -0.555570 0.587938
v 0.500000 -0.707107 0.500000
v 0.392848 -0.831470 0.392848
v 0.270598 -0.923880 0.270598
v 0.137950 -0.980785 0.137950
v 0.074658 0.980785 0.180240
v 0.146447 0.923880 0.353554
v 0.212608 0.831470 0.513280
v 0.270598 0.707107 0.653282
v 0.318190 0.555570 0.768178
v 0.353553 0.382683 0.853554
v 0.375330 0.195090 0.906127
v 0.382683 0.000000 0.923880
v 0.375330 -0.195090 0.906127
v 0.353553 -0.382683 0.853554
v 0.318190 -0.555570 0.768178
v 0.270598 -0.707107 0.653282
v 0.212608 -0.831470 0.513280
v 0.146447 -0.923880 0.353554
v 0.074658 -0.980785 0.180240
v 0.000000 0.980785 0.195091
v 0.000000 0.923880 0.382684
v 0.000000 0.831470 0.555570
v 0.000000 0.707107 0.707107
v -0.000000 0.555570 0.831470
v -0.000000 0.382683 0.923880
v 0.000000 0.195090 0.980785
v -0.000000 0.000000 1.000000
v 0.000000 -0.195090 0.980785
v -0.000000 -0.382683 0.923880
v -0.000000 -0.555570 0.831470
v 0.000000 -0.707107 0.707107
v 0.000000 -0.831470 0.555570
v 0.000000 -0.923880 0.382684
v 0.000000 -0.980785 0.195090
v -0.074658 0.980785 0.180240
v -0.146446 0.923880 0.353554
v -0.212608 0.831470 0.513280
v -0.270598 0.707107 0.653281
v -0.318190 0.555570 0.768178
v -0.353553 0.382683 0.853553
v -0.375330 0.195090 0.906127
v -0.382684 0.000000 0.923880
v -0.375330 -0.195090 0.906127
v -0.353553 -0.382683 0.853553
v -0.318190 -0.555570 0.768178
v -0.270598 -0.707107 0.653281
v -0.212608 -0.831470 0.513280
v -0.146447 -0.923880 0.353553
v -0.074658 -0.980785 0.180240
v 0.000000 1.000000 0.000000
v -0.137950 0.980785 0.137950
v -0.270598 0.923880 0.270598
v -0.392847 0.831470 0.392847
v -0.500000 0.707107 0.500000
v -0.587938 0.555570 0.587937
v -0.653282 0.382683 0.653281
v -0.693520 0.195090 0.693520
v -0.707107 0.000000 0.707107
v -0.693520 -0.195090 0.693520
v -0.653282 -0.382683 0.653281
v -0.587938 -0.555570 0.587937
v -0.500000 -0.707107 0.500000
v -0.392847 -0.831470 0.392847
v -0.270598 -0.923880 0.270598
v -0.137949 -0.980785 0.137950
v 0.000000 -1.000000 0.000000
v -0.180240 0.980785 0.074658
v -0.353553 0.923880 0.146447
v -0.513280 0.831470 0.212607
v -0.653281 0.707107 0.270598
v -0.768178 0.555570 0.318189
v -0.853553 0.382683 0.353553
v -0.906127 0.195090 0.375330
v -0.923880 0.000000 0.382683
v -0.906127 -0.195090 0.375330
v -0.853553 -0.382683 0.353553
v -0.768178 -0.555570 0.318189
v -0.653281 -0.707107 0.270598
v -0.513280 -0.831470 0.212607
v -0.353553 -0.923880 0.146446
v -0.180240 -0.980785 0.074658
vn -0.764000 -0.627000 -0.152000
vn -0.764000 0.627000 -0.152000
vn -0.629400 -0.766900 -0.125200
vn -0.868700 0.464300 -0.172800
vn -0.469300 -0.878100 -0.093400
vn -0.940100 0.285200 -0.187000
vn -0.289800 -0.955300 -0.057600
vn -0.976200 0.096200 -0.194200
vn -0.976200 -0.096200 -0.194200
vn -0.289800 0.955300 -0.057600
vn -0.940100 -0.285200 -0.187000
vn -0.469300 0.878100 -0.093400
vn -0.868700 -0.464300 -0.172800
vn -0.629400 0.766900 -0.125200
vn -0.736400 -0.464300 -0.492100
vn -0.533600 0.766900 -0.356500
vn -0.647700 -0.627000 -0.432800
vn -0.647700 0.627000 -0.432800
vn -0.533600 -0.766900 -0.356500
vn -0.736400 0.464300 -0.492100
vn -0.397900 -0.878100 -0.265900
vn -0.796900 0.285200 -0.532500
vn -0.245700 -0.955300 -0.164200
vn -0.827600 0.096200 -0.553000
vn -0.827600 -0.096200 -0.553000
vn -0.245700 0.955300 -0.164200
vn -0.796900 -0.285200 -0.532500
vn -0.397900 0.878100 -0.265900
vn -0.164200 -0.955300 -0.245700
vn -0.553000 0.096200 -0.827600
vn -0.553000 -0.096200 -0.827600
vn -0.164200 0.955300 -0.245700
vn -0.532500 -0.285200 -0.796900
vn -0.265900 0.878100 -0.397900
vn -0.492100 -0.464300 -0.736400
vn -0.356500 0.766900 -0.533600
vn -0.432800 -0.627000 -0.647700
vn -0.432800 0.627000 -0.647700
vn -0.356500 -0.766900 -0.533600
vn -0.492100 0.464300 -0.736400
vn -0.265900 -0.878100 -0.397900
vn -0.532500 0.285200 -0.796900
vn -0.125200 0.766900 -0.629400
vn -0.152000 -0.627000 -0.764000
vn -0.152000 0.627000 -0.764000
vn -0.125200 -0.766900 -0.629400
vn -0.172800 0.464300 -0.868700
vn -0.093400 -0.878100 -0.469300
vn -0.187000 0.285200 -0.940100
vn -0.057600 -0.955300 -0.289800
vn -0.194200 0.096200 -0.976200
vn -0.194200 -0.096200 -0.976200
vn -0.057600 0.955300 -0.289800
vn -0.187000 -0.285200 -0.940100
vn -0.093400 0.878100 -0.469300
vn -0.172800 -0.464300 -0.868700
vn 0.194200 0.096200 -0.976200
vn 0.194200 -0.096200 -0.976200
vn 0.057600 0.955300 -0.289800
vn 0.187000 -0.285200 -0.940100
vn 0.093400 0.878100 -0.469300
vn 0.172800 -0.464300 -0.868700
vn 0.125200 0.766900 -0.629400
vn 0.152000 -0.627000 -0.764000
vn 0.152000 0.627000 -0.764000
vn 0.125200 -0.766900 -0.629400
vn 0.172800 0.464300 -0.868700
vn 0.093400 -0.878100 -0.469300
vn 0.187000 0.285200 -0.940100
vn 0.057600 -0.955300 -0.289800
vn 0.432800 -0.627000 -0.647700
vn 0.432800 0.627000 -0.647700
vn 0.356500 -0.766900 -0.533600
vn 0.492100 0.464300 -0.736400
vn 0.265900 -0.878100 -0.397900
vn 0.532500 0.285200 -0.796900
vn 0.164200 -0.955300 -0.245700
vn 0.553000 0.096200 -0.827600
vn 0.553000 -0.096200 -0.827600
vn 0.164200 0.955300 -0.245700
vn 0.532500 -0.285200 -0.796900
vn 0.265900 0.878100 -0.397900
vn 0.492100 -0.464300 -0.736400
vn 0.356500 0.766900 -0.533600
vn 0.827600 -0.096200 -0.553000
vn 0.245700 0.955300 -0.164200
vn 0.796900 -0.285200 -0.532500
vn 0.397900 0.878100 -0.265900
vn 0.736400 -0.464300 -0.492100
vn 0.533600 0.766900 -0.356500
vn 0.647700 -0.627000 -0.432800
vn 0.647700 0.627000 -0.432800
vn 0.533600 -0.766900 -0.356500
vn 0.736400 0.464300 -0.492100
vn 0.397900 -0.878100 -0.265900
vn 0.796900 0.285200 -0.532500
vn 0.245700 -0.955300 -0.164200
vn 0.827600 0.096200 -0.553000
vn 0.629400 -0.766900 -0.125200
vn 0.868700 0.464300 -0.172800
vn 0.469300 -0.878100 -0.093400
vn 0.940100 0.285200 -0.187000
vn 0.289800 -0.955300 -0.057600
vn 0.976200 0.096200 -0.194200
vn 0.976200 -0.096200 -0.194200
vn 0.289800 0.955300 -0.057600
vn 0.940100 -0.285200 -0.187000
vn 0.469300 0.878100 -0.093400
vn 0.868700 -0.464300 -0.172800
vn 0.629400 0.766900 -0.125200
vn 0.764000 -0.627000 -0.152000
vn 0.764000 0.627000 -0.152000
vn 0.289800 0.955300 0.057600
vn 0.940100 -0.285200 0.187000
vn 0.469300 0.878100 0.093400
vn 0.868700 -0.464300 0.172800
vn 0.629400 0.766900 0.125200
vn 0.764000 -0.627000 0.152000
vn 0.764000 0.627000 0.152000
vn 0.629400 -0.766900 0.125200
vn 0.868700 0.464300 0.172800
vn 0.469300 -0.878100 0.093400
vn 0.940100 0.285200 0.187000
vn 0.289800 -0.955300 0.057600
vn 0.976200 0.096200 0.194200
vn 0.976200 -0.096200 0.194200
vn 0.736400 0.464300 0.492100
vn 0.397900 -0.878100 0.265900
vn 0.796900 0.285200 0.532500
vn 0.245700 -0.955300 0.164200
vn 0.827600 0.096200 0.553000
vn 0.827600 -0.096200 0.553000
vn 0.245700 0.955300 0.164200
vn 0.796900 -0.285200 0.532500
vn 0.397900 0.878100 0.265900
vn 0.736400 -0.464300 0.492100
vn 0.533600 0.766900 0.356500
vn 0.647700 -0.627000 0.432800
vn 0.647700 0.627000 0.432800
vn 0.533600 -0.766900 0.356500
vn 0.532500 -0.285200 0.796900
vn 0.265900 0.878100 0.397900
vn 0.492100 -0.464300 0.736400
vn 0.356500 0.766900 0.533600
vn 0.432800 -0.627000 0.647700
vn 0.432800 0.627000 0.647700
vn 0.356500 -0.766900 0.533600
vn 0.492100 0.464300 0.736400
vn 0.265900 -0.878100 0.397900
vn 0.532500 0.285200 0.796900
vn 0.164200 -0.955300 0.245700
vn 0.553000 0.096200 0.827600
vn 0.553000 -0.096200 0.827600
vn 0.164200 0.955300 0.245700
vn 0.093400 -0.878100 0.469300
vn 0.187000 0.285200 0.940100
vn 0.057600 -0.955300 0.289800
vn 0.194200 0.096200 0.976200
vn 0.194200 -0.096200 0.976200
vn 0.057600 0.955300 0.289800
vn 0.187000 -0.285200 0.940100
vn 0.093400 0.878100 0.469300
vn 0.172800 -0.464300 0.868700
vn 0.125200 0.766900 0.629400
vn 0.152000 -0.627000 0.764000
vn 0.152000 0.627000 0.764000
vn 0.125200 -0.766900 0.629400
vn 0.172800 0.464300 0.868700
vn -0.093400 0.878100 0.469300
vn -0.172800 -0.464300 0.868700
vn -0.125200 0.766900 0.629400
vn -0.152000 -0.627000 0.764000
vn -0.152000 0.627000 0.764000
vn -0.125200 -0.766900 0.629400
vn -0.172800 0.464300 0.868700
vn -0.093400 -0.878100 0.469300
vn -0.187000 0.285200 0.940100
vn -0.057600 -0.955300 0.289800
vn -0.194200 0.096200 0.976200
vn -0.194200 -0.096200 0.976200
vn -0.057600 0.955300 0.289800
vn -0.187000 -0.285200 0.940100
vn -0.532500 0.285200 0.796900
vn -0.164200 -0.955300 0.245700
vn -0.553000 0.096200 0.827600
vn -0.553000 -0.096200 0.827600
vn -0.164200 0.955300 0.245700
vn -0.532500 -0.285200 0.796900
vn -0.265900 0.878100 0.397900
vn -0.492100 -0.464300 0.736400
vn -0.356500 0.766900 0.533600
vn -0.432800 -0.627000 0.647700
vn -0.432800 0.627000 0.647700
vn -0.356500 -0.766900 0.533600
vn -0.492100 0.464300 0.736400
vn -0.265900 -0.878100 0.397900
vn -0.736400 -0.464300 0.492100
vn -0.533600 0.766900 0.356500
vn -0.647700 -0.627000 0.432800
vn -0.647700 0.627000 0.432800
vn -0.533600 -0.766900 0.356500
vn -0.736400 0.464300 0.492100
vn -0.397900 -0.878100 0.265900
vn -0.796900 0.285200 0.532500
vn -0.245700 -0.955300 0.164200
vn -0.827600 0.096200 0.553000
vn -0.827600 -0.096200 0.553000
vn -0.245700 0.955300 0.164200
vn -0.796900 -0.285200 0.532500
vn -0.397900 0.878100 0.265900
vn -0.098000 0.995000 -0.019500
vn -0.098000 -0.995000 -0.019500
vn -0.083100 0.995000 -0.055500
vn -0.083100 -0.995000 -0.055500
vn -0.055500 0.995000 -0.083100
vn -0.055500 -0.995000 -0.083100
vn -0.019500 0.995000 -0.098000
vn -0.019500 -0.995000 -0.098000
vn 0.019500 0.995000 -0.098000
vn 0.019500 -0.995000 -0.098000
vn 0.055500 0.995000 -0.083100
vn 0.055500 -0.995000 -0.083100
vn 0.083100 -0.995000 -0.055500
vn 0.083100 0.995000 -0.055500
vn 0.098000 0.995000 -0.019500
vn 0.098000 -0.995000 -0.019500
vn 0.098000 0.995000 0.019500
vn 0.098000 -0.995000 0.019500
vn 0.083100 0.995000 0.055500
vn 0.083100 -0.995000 0.055500
vn 0.055500 0.995000 0.083100
vn 0.055500 -0.995000 0.083100
vn 0.019500 0.995000 0.098000
vn 0.019500 -0.995000 0.098000
vn -0.019500 0.995000 0.098000
vn -0.019500 -0.995000 0.098000
vn -0.055500 0.995000 0.083100
vn -0.055500 -0.995000 0.083100
vn -0.083100 0.995000 0.055500
vn -0.083100 -0.995000 0.055500
vn -0.289800 -0.955300 0.057600
vn -0.976200 0.096200 0.194200
vn -0.098000 0.995000 0.019500
vn -0.098000 -0.995000 0.019500
vn -0.976200 -0.096200 0.194200
vn -0.289800 0.955300 0.057600
vn -0.940100 -0.285200 0.187000
vn -0.469300 0.878100 0.093400
vn -0.868700 -0.464300 0.172800
vn -0.629400 0.766900 0.125200
vn -0.764000 -0.627000 0.152000
vn -0.764000 0.627000 0.152000
vn -0.629400 -0.766900 0.125200
vn -0.868700 0.464300 0.172800
vn -0.469300 -0.878100 0.093400
vn -0.940100 0.285200 0.187000
usemtl None
s off
f 12//1 11//1 26//1 27//1
f 5//2 4//2 19//2 20//2
f 13//3 12//3 27//3 28//3
f 6//4 5//4 20//4 21//4
f 14//5 13//5 28//5 29//5
f 7//6 6//6 21//6 22//6
f 15//7 14//7 29//7 30//7
f 8//8 7//8 22//8 23//8
f 9//9 8//9 23//9 24//9
f 2//10 1//10 16//10 17//10
f 10//11 9//11 24//11 25//11
f 3//12 2//12 17//12 18//12
f 11//13 10//13 25//13 26//13
f 4//14 3//14 18//14 19//14
f 26//15 25//15 40//15 41//15
f 19//16 18//16 33//16 34//16
f 27//17 26//17 41//17 42//17
f 20//18 19//18 34//18 35//18
f 28//19 27//19 42//19 43//19
f 21//20 20//20 35//20 36//20
f 29//21 28//21 43//21 44//21
f 22//22 21//22 36//22 37//22
f 30//23 29//23 44//23 45//23
f 23//24 22//24 37//24 38//24
f 24//25 23//25 38//25 39//25
f 17//26 16//26 31//26 32//26
f 25//27 24//27 39//27 40//27
f 18//28 17//28 32//28 33//28
f 45//29 44//29 59//29 60//29
f 38//30 37//30 52//30 53//30
f 39//31 38//31 53//31 54//31
f 32//32 31//32 46//32 47//32
f 40//33 39//33 54//33 55//33
f 33//34 32//34 47//34 48//34
f 41//35 40//35 55//35 56//35
f 34//36 33//36 48//36 49//36
f 42//37 41//37 56//37 57//37
f 35//38 34//38 49//38 50//38
f 43//39 42//39 57//39 58//39
f 36//40 35//40 50//40 51//40
f 44//41 43//41 58//41 59//41
f 37//42 36//42 51//42 52//42
f 49//43 48//43 63//43 64//43
f 57//44 56//44 71//44 72//44
f 50//45 49//45 64//45 65//45
f 58//46 57//46 72//46 73//46
f 51//47 50//47 65//47 66//47
f 59//48 58//48 73//48 74//48
f 52//49 51//49 66//49 67//49
f 60//50 59//50 74//50 75//50
f 53//51 52//51 67//51 68//51
f 54//52 53//52 68//52 69//52
f 47//53 46//53 61//53 62//53
f 55//54 54//54 69//54 70//54
f 48//55 47//55 62//55 63//55
f 56//56 55//56 70//56 71//56
f 68//57 67//57 82//57 83//57
f 69//58 68//58 83//58 84//58
f 62//59 61//59 76//59 77//59
f 70//60 69//60 84//60 85//60
f 63//61 62//61 77//61 78//61
f 71//62 70//62 85//62 86//62
f 64//63 63//63 78//63 79//63
f 72//64 71//64 86//64 87//64
f 65//65 64//65 79//65 80//65
f 73//66 72//66 87//66 88//66
f 66//67 65//67 80//67 81//67
f 74//68 73//68 88//68 89//68
f 67//69 66//69 81//69 82//69
f 75//70 74//70 89//70 90//70
f 87//71 86//71 101//71 102//71
f 80//72 79//72 94//72 95//72
f 88//73 87//73 102//73 103//73
f 81//74 80//74 95//74 96//74
f 89//75 88//75 103//75 104//75
f 82//76 81//76 96//76 97//76
f 90//77 89//77 104//77 105//77
f 83//78 82//78 97//78 98//78
f 84//79 83//79 98//79 99//79
f 77//80 76//80 91//80 92//80
f 85//81 84//81 99//81 100//81
f 78//82 77//82 92//82 93//82
f 86//83 85//83 100//83 101//83
f 79//84 78//84 93//84 94//84
f 99//85 98//85 113//85 114//85
f 92//86 91//86 106//86 107//86
f 100//87 99//87 114//87 115//87
f 93//88 92//88 107//88 108//88
f 101//89 100//89 115//89 116//89
f 94//90 93//90 108//90 109//90
f 102//91 101//91 116//91 117//91
f 95//92 94//92 109//92 110//92
f 103//93 102//93 117//93 118//93
f 96//94 95//94 110//94 111//94
f 104//95 103//95 118//95 119//95
f 97//96 96//96 111//96 112//96
f 105//97 104//97 119//97 120//97
f 98//98 97//98 112//98 113//98
f 118//99 117//99 132//99 133//99
f 111//100 110//100 125//100 126//100
f 119//101 118//101 133//101 134//101
f 112//102 111//102 126//102 127//102
f 120//103 119//103 134//103 135//103
f 113//104 112//104 127//104 128//104
f 114//105 113//105 128//105 129//105
f 107//106 106//106 121//106 122//106
f 115//107 114//107 129//107 130//107
f 108//108 107//108 122//108 123//108
f 116//109 115//109 130//109 131//109
f 109//110 108//110 123//110 124//110
f 117//111 116//111 131//111 132//111
f 110//112 109//112 124//112 125//112
f 122//113 121//113 136//113 137//113
f 130//114 129//114 144//114 145//114
f 123//115 122//115 137//115 138//115
f 131//116 130//116 145//116 146//116
f 124//117 123//117 138//117 139//117
f 132//118 131//118 146//118 147//118
f 125//119 124//119 139//119 140//119
f 133//120 132//120 147//120 148//120
f 126//121 125//121 140//121 141//121
f 134//122 133//122 148//122 149//122
f 127//123 126//123 141//123 142//123
f 135//124 134//124 149//124 150//124
f 128//125 127//125 142//125 143//125
f 129//126 128//126 143//126 144//126
f 141//127 140//127 155//127 156//127
f 149//128 148//128 163//128 164//128
f 142//129 141//129 156//129 157//129
f 150//130 149//130 164//130 165//130
f 143//131 142//131 157//131 158//131
f 144//132 143//132 158//132 159//132
f 137//133 136//133 151//133 152//133
f 145//134 144//134 159//134 160//134
f 138//135 137//135 152//135 153//135
f 146//136 145//136 160//136 161//136
f 139//137 138//137 153//137 154//137
f 147//138 146//138 161//138 162//138
f 140//139 139//139 154//139 155//139
f 148//140 147//140 162//140 163//140
f 160//141 159//141 174//141 175//141
f 153//142 152//142 167//142 168//142
f 161//143 160//143 175//143 176//143
f 154//144 153//144 168//144 169//144
f 162//145 161//145 176//145 177//145
f 155//146 154//146 169//146 170//146
f 163//147 162//147 177//147 178//147
f 156//148 155//148 170//148 171//148
f 164//149 163//149 178//149 179//149
f 157//150 156//150 171//150 172//150
f 165//151 164//151 179//151 180//151
f 158//152 157//152 172//152 173//152
f 159//153 158//153 173//153 174//153
f 152//154 151//154 166//154 167//154
f 179//155 178//155 193//155 194//155
f 172//156 171//156 186//156 187//156
f 180//157 179//157 194//157 195//157
f 173//158 172//158 187//158 188//158
f 174//159 173//159 188//159 189//159
f 167//160 166//160 181//160 182//160
f 175//161 174//161 189//161 190//161
f 168//162 167//162 182//162 183//162
f 176//163 175//163 190//163 191//163
f 169//164 168//164 183//164 184//164
f 177//165 176//165 191//165 192//165
f 170//166 169//166 184//166 185//166
f 178//167 177//167 192//167 193//167
f 171//168 170//168 185//168 186//168
f 183//169 182//169 197//169 198//169
f 191//170 190//170 205//170 206//170
f 184//171 183//171 198//171 199//171
f 192//172 191//172 206//172 207//172
f 185//173 184//173 199//173 200//173
f 193//174 192//174 207//174 208//174
f 186//175 185//175 200//175 201//175
f 194//176 193//176 208//176 209//176
f 187//177 186//177 201//177 202//177
f 195//178 194//178 209//178 210//178
f 188//179 187//179 202//179 203//179
f 189//180 188//180 203//180 204//180
f 182//181 181//181 196//181 197//181
f 190//182 189//182 204//182 205//182
f 202//183 201//183 217//183 218//183
f 210//184 209//184 225//184 226//184
f 203//185 202//185 218//185 219//185
f 204//186 203//186 219//186 220//186
f 197//187 196//187 212//187 213//187
f 205//188 204//188 220//188 221//188
f 198//189 197//189 213//189 214//189
f 206//190 205//190 221//190 222//190
f 199//191 198//191 214//191 215//191
f 207//192 206//192 222//192 223//192
f 200//193 199//193 215//193 216//193
f 208//194 207//194 223//194 224//194
f 201//195 200//195 216//195 217//195
f 209//196 208//196 224//196 225//196
f 222//197 221//197 237//197 238//197
f 215//198 214//198 230//198 231//198
f 223//199 222//199 238//199 239//199
f 216//200 215//200 231//200 232//200
f 224//201 223//201 239//201 240//201
f 217//202 216//202 232//202 233//202
f 225//203 224//203 240//203 241//203
f 218//204 217//204 233//204 234//204
f 226//205 225//205 241//205 242//205
f 219//206 218//206 234//206 235//206
f 220//207 219//207 235//207 236//207
f 213//208 212//208 228//208 229//208
f 221//209 220//209 236//209 237//209
f 214//210 213//210 229//210 230//210
f 1//211 211//211 16//211
f 227//212 15//212 30//212
f 16//213 211//213 31//213
f 227//214 30//214 45//214
f 31//215 211//215 46//215
f 227//216 45//216 60//216
f 46//217 211//217 61//217
f 227//218 60//218 75//218
f 61//219 211//219 76//219
f 227//220 75//220 90//220
f 76//221 211//221 91//221
f 227//222 90//222 105//222
f 227//223 105//223 120//223
f 91//224 211//224 106//224
f 106//225 211//225 121//225
f 227//226 120//226 135//226
f 121//227 211//227 136//227
f 227//228 135//228 150//228
f 136//229 211//229 151//229
f 227//230 150//230 165//230
f 151//231 211//231 166//231
f 227//232 165//232 180//232
f 166//233 211//233 181//233
f 227//234 180//234 195//234
f 181//235 211//235 196//235
f 227//236 195//236 210//236
f 196//237 211//237 212//237
f 227//238 210//238 226//238
f 212//239 211//239 228//239
f 227//240 226//240 242//240
f 242//241 241//241 14//241 15//241
f 235//242 234//242 7//242 8//242
f 228//243 211//243 1//243
f 227//244 242//244 15//244
f 236//245 235//245 8//245 9//245
f 229//246 228//246 1//246 2//246
f 237//247 236//247 9//247 10//247
f 230//248 229//248 2//248 3//248
f 238//249 237//249 10//249 11//249
f 231//250 230//250 3//250 4//250
f 239//251 238//251 11//251 12//251
f 232//252 231//252 4//252 5//252
f 240//253 239//253 12//253 13//253
f 233//254 232//254 5//254 6//254
f 241//255 240//255 13//255 14//255
f 234//256 233//256 6//256 7//256
